 http://i30.fastpic.ru/big/2011/1115/11/66b381cd468eba8f735128a63e1a7811.jpg

Country.......: Italian, France
Genre.........: Drama
Date release..: 15.04.2011 [World]
Director......: Nanni Moretti
Writers.......: Nanni Moretti, Francesco Piccolo
Duration......: 105 min.
More..........: http://www.imdb.com/title/tt1456472
Trailer.......: http://www.imdb.com/video/imdblink/vi908500249
Trailer.......:

Pilot :
A story centered on the relationship between the newly elected Pope and his therapist..

Cats :
Michel Piccoli   	 ...  	Il papa
Jerzy Stuhr 	... 	Il portavoce
Renato Scarpa 	... 	Cardinal Gregori
Franco Graziosi 	... 	Cardinal Bollati
Camillo Milli 	... 	Cardinal Pescardona
Roberto Nobile 	... 	Cardinal Cevasco
Ulrich von Dobschutz 	... 	Cardinal Brummer
Gianluca Gobbi 	... 	Guardia svizzera
Nanni Moretti 	... 	Lo psicoanalista
Margherita Buy 	... 	La psicoanalista
Camilla Ridolfi 	... 	Bambina
Leonardo Della Bianca 	... 	Bambino
Dario Cantarelli 	... 	Attore
Manuela Mandracchia 	... 	Attrice
Rossana Mortara 	... 	Attrice 

Data Technical :
Audio.....: English
Subtitles.: English .srt, Russian .srt
Format : MPEG-4 Visual 
Format profile : Advanced Simple@L5 
Format settings, Matrix : Default (MPEG) 
Codec ID : XVID 
Bit rate : 1 470 Kbps 
Resolution: 704 x 384 pixels
Display aspect ratio : 16:9 
Frame rate : 23.976 fps 
Bit depth : 8 bits 
Stream size : 1.08 GiB (88%) 
Writing library : XviD 1.2.1 (UTC 2008-12-04) 
Format : AC-3 
Format/Info : Audio Coding 3 
Mode extension : CM (complete main) 
Codec ID : 2000 
Bit rate : 192 Kbps 
Channel(s) : 2 channels 
Channel positions : Front: L R 
Sampling rate : 48.0 KHz 
Bit depth : 16 bits 
Stream size : 144 MiB (11%)

Screen : 
http://i28.fastpic.ru/big/2011/1115/54/21cd276248f12528779da11436326754.jpg 
http://i29.fastpic.ru/big/2011/1115/2e/fa59ea6ee94a87ce23c88d86e8ac0f2e.jpg 
http://i27.fastpic.ru/big/2011/1115/08/9044613b42d5622d4d9d57ed054a5908.jpg 
http://i30.fastpic.ru/big/2011/1115/91/524b0e566a65332a975fdf5956b46291.jpg 
http://i32.fastpic.ru/big/2011/1115/bd/f7fcde1ba83198628a940b584bcb35bd.jpg